<svg xmlns="http://www.w3.org/2000/svg" version="1.0" width="16pt" height="16pt" viewBox="0 0 16 16"><path d="M9.021.183c-.932.31-2.905.962-2.928.966-.015.004-.829.272-1.81.599l-1.87.62a53.311 53.311 0 01-.8.27l-.662.218.004.193c.002.218.031 1.243.06 2.115a199.993 199.993 0 00.05 1.864l.075 2.665c.025.852.05 1.57.054 1.594.01.038.06.087.356.344l.523.454c.357.313.68.592 1.694 1.47.572.494 1.049.907 1.06.919l.893.776c.606.524.882.754.9.753.015-.001.18-.062.367-.133l1.971-.765 3.617-1.401c1.09-.424 2.058-.8 2.15-.833l.165-.062.008-.141c.004-.077.021-.625.04-1.217.04-1.426.056-1.913.136-4.605l.073-2.42c.003-.108 0-.147-.015-.167a25.85 25.85 0 00-.831-.607 44.416 44.416 0 01-.847-.613 173.538 173.538 0 00-2.617-1.877c-.007.005-.268-.18-1.163-.822a8.522 8.522 0 00-.353-.247 2.553 2.553 0 00-.3.09zm.35 6.75a.283.283 0 01.148.175c.019.05.022.078.013.182a2.858 2.858 0 00-.008.227c.003.124-.01.151-.096.23-.148.136-.293.215-.564.31-.141.05-.353.076-.437.054-.083-.022-.099-.05-.099-.184 0-.267.12-.55.318-.747.141-.142.319-.242.464-.264.133-.02.192-.016.26.018zm-1.698.756c.107.09.196.173.196.182 0 .022-.016.03-.114.067l-.075.029-.007.223a2.23 2.23 0 01-.012.228c-.01.011-.392.148-.411.148-.014 0-.018-.04-.018-.215 0-.167-.004-.214-.016-.214a.584.584 0 00-.096.027c-.043.015-.082.024-.086.018-.007-.007-.013.003.357-.578.03-.046.062-.084.07-.084.01.001.105.077.212.169zm4.204.226c.417.075.72.29.908.65.12.229.168.452.168.788 0 .292-.053.567-.165.863-.17.445-.39.803-.702 1.147a4.74 4.74 0 01-.466.43l-.259.177c-.087.06-.394.202-.531.247a1.871 1.871 0 01-.494.105 1.083 1.083 0 01-.325-.007 1.186 1.186 0 01-.756-.374c-.184-.193-.298-.44-.35-.748a2.969 2.969 0 010-.599c.058-.349.134-.585.285-.895a3.535 3.535 0 011.318-1.457c.188-.115.566-.27.723-.295a.598.598 0 00.086-.019c.047-.029.418-.037.56-.013zm-3.869.494a.047.047 0 01-.022.032c-.027.014-1.068.39-1.083.39-.006 0-.011-.012-.011-.025 0-.019.029-.034.142-.075.738-.269.938-.34.957-.34.011-.002.019.007.017.018zm-6.172 1.897c.161.1.325.408.369.695.025.165-.011.324-.082.362-.078.041-.198-.018-.297-.149-.235-.311-.317-.794-.155-.921.041-.033.098-.028.165.013zm1.009.958c.171.147.315.273.32.28.005.008.01.04.01.073v.06h-.063c-.068 0-.077.013-.044.06a.086.086 0 00.06.031l.04.004.01.238c.005.131.005.247-.002.256-.008.016-.074-.036-.525-.425l-.116-.098-.009-.219a3.429 3.429 0 01-.004-.262l.004-.044.044.072c.047.078.085.1.07.037a.137.137 0 00-.024-.053.386.386 0 01-.096-.214c0-.035.002-.063.006-.063s.148.12.319.267zm.782.542c.048.044.1.095.115.114.019.025.04.035.067.035.06.001.186.123.23.222a.81.81 0 00.086.137c.085.102.086.107.093.438l.007.3-.043.037a.179.179 0 01-.063.038c-.012 0-.048-.032-.08-.07l-.061-.071.016-.07a.748.748 0 00-.05-.388c-.052-.136-.152-.287-.217-.33-.083-.055-.187-.042-.187.024 0 .021.006.024.036.016.07-.02.148.007.195.065a.601.601 0 00.04.046c.03.03.104.19.126.276.028.106.022.262-.011.299-.031.034-.108.045-.161.022-.078-.032-.163-.157-.223-.327a.857.857 0 00-.07-.153c-.041-.061-.042-.078-.049-.375-.003-.18 0-.26.012-.295.032-.094.078-.092.192.01zm1.118.975c.164.094.318.368.374.667.04.21.013.358-.074.416-.164.11-.463-.25-.546-.66a1.033 1.033 0 01-.012-.182c0-.152.025-.218.093-.257.057-.031.087-.029.165.016zm.887.79c.032.018.055.042.063.066.015.048.194.202.22.19.042-.015.17.165.17.24 0 .02.012.073.027.118.014.045.03.105.037.132.005.028.019.082.029.12.01.038.027.117.039.176l.034.16c.017.08.014.124-.013.157l-.023.029-.034-.036a.527.527 0 01-.078-.13 1.256 1.256 0 00-.108-.212c-.06-.089-.286-.283-.362-.309-.035-.013-.045-.01-.09.02-.047.034-.048.034-.08.01-.055-.04-.083-.113-.083-.223 0-.083.008-.12.052-.244.029-.082.065-.165.082-.188a.15.15 0 00.03-.072c0-.041.023-.041.088-.005z"/><path d="M9.025 7.268c-.026.01-.067.072-.067.1 0 .007.012.018.026.026.032.017.069-.002.094-.05.016-.033.016-.038-.004-.061-.016-.02-.027-.023-.049-.015zM8.643 7.352c-.015.019-.025.048-.022.066.009.075.11.022.11-.058 0-.036-.003-.042-.03-.042-.019 0-.041.014-.058.034zM8.814 7.595a.501.501 0 01-.123.026c-.025 0-.049.005-.054.01-.011.021.04.041.078.032a.664.664 0 00.193-.082c0-.015-.006-.013-.094.014zM11.365 8.474c-.155.013-.437.088-.467.124-.012.014-.013.077-.007.248.014.419.023.527.04.535a.355.355 0 00.098-.02c.214-.066.46.013.555.178.062.106.075.166.068.337a1.187 1.187 0 01-.019.189.444.444 0 00-.039.145 5.6 5.6 0 00.464.075c.066.01.135.022.154.027.05.01.074-.023.12-.159.133-.41.148-.694.052-1.005-.11-.36-.378-.603-.722-.658a1.68 1.68 0 00-.297-.016zM9.577 9.944c-.02.047-.074.205-.115.341-.024.076-.04.218-.046.378a.985.985 0 00.035.353c.008.028.016.064.02.082.015.074.131.287.194.357a.91.91 0 00.563.3c.108.015.34.007.439-.014.116-.027.301-.089.344-.115l.043-.025-.009-.097a15.99 15.99 0 01-.02-.368l-.013-.281c0-.015-.043-.01-.12.016-.162.056-.367.043-.48-.029-.162-.103-.236-.312-.2-.557a.788.788 0 01.066-.233c.027-.066.019-.072-.236-.107a9.357 9.357 0 01-.184-.031 1.953 1.953 0 00-.205-.026c-.05 0-.055.003-.076.056zM1.713 10.346c-.035.016-.088.112-.088.156 0 .028.141.205.164.205.006 0 .018-.01.025-.025.018-.034.046-.031.092.008l.04.033.036-.072c.044-.09.04-.114-.04-.198-.1-.107-.166-.139-.229-.107zM1.638 10.7c0 .016.007.035.016.043.02.016.122.044.133.035.01-.011-.038-.06-.089-.084-.059-.03-.06-.03-.06.006z"/><path d="M1.842 10.71c-.02.02-.019.077.004.132.026.065.055.092.092.092.03 0 .03-.002.025-.068a.245.245 0 00-.04-.12c-.034-.052-.055-.062-.081-.036zm.078.108c.006.023.008.044.004.05-.016.015-.047-.026-.047-.062 0-.05.028-.04.043.012zM2.01 10.89a.42.42 0 00.144.107c.01 0 .013-.014.01-.034-.003-.036-.047-.065-.125-.084-.028-.006-.033-.004-.028.011zM1.827 11.005a.3.3 0 00-.025.088c0 .062.167.207.24.207.04 0 .082-.03.106-.076.033-.064.024-.093-.058-.189l-.078-.09-.026.026c-.036.033-.06.033-.09.001-.033-.036-.041-.031-.07.033zM2.696 11.378c-.08.13.052.49.21.574.013.008.032.01.041.003.03-.018.005-.073-.048-.107a.382.382 0 01-.157-.382c.008-.03.051-.038.094-.015.025.014.093.112.083.12-.003.005-.025-.013-.048-.038-.053-.056-.105-.06-.117-.012-.024.094.062.269.134.27.011 0 .031.02.046.044.033.056.082.062.095.012.02-.076-.024-.247-.09-.356-.09-.146-.194-.194-.243-.113zm.162.23c.017.04.02.095.003.095-.021 0-.051-.054-.051-.09 0-.045.029-.047.048-.005zm.112.133l-.004.031-.015-.035a.236.236 0 01-.014-.088l.001-.053.018.056c.01.032.016.071.014.089zM3.767 12.075c0 .03.112.157.139.157.035 0-.001-.076-.066-.136-.063-.062-.073-.064-.073-.021zM3.567 12.34c-.067.085-.004.357.11.48.103.11.172.108.205-.01.041-.16-.13-.502-.252-.502-.025 0-.045.011-.063.032zm.033.184c-.003.017-.005.004-.005-.027 0-.032.002-.044.005-.03a.214.214 0 010 .057zm.122.232c.049.046.052.05.025.046-.044-.008-.144-.17-.144-.228 0-.012.014.013.032.055.02.05.05.093.087.127zM4.523 13.148c0 .093.036.214.104.357.052.108.08.148.153.223.078.078.099.09.149.098.034.005.068.004.083-.005.04-.021.076-.09.088-.169.028-.174-.069-.501-.162-.552-.033-.017-.143.092-.13.131a.102.102 0 00.019.04c.018.02.013.07-.008.077-.01.005-.019.017-.019.028 0 .033-.03-.004-.084-.104-.034-.062-.057-.09-.076-.092-.029-.004-.035.008-.044.085-.003.027-.008.02-.026-.03a.428.428 0 01-.022-.105c0-.022-.005-.041-.012-.041-.006 0-.013.026-.013.06zm.378.083c0 .024-.034.067-.044.057-.005-.005.001-.023.015-.04.027-.037.03-.04.03-.017zm.037.397c.02.042.017.093-.004.088a.375.375 0 01-.12-.148c0-.013.007-.026.015-.03.02-.006.09.052.109.09zM5.561 13.737a.02.02 0 01-.025.01c-.024-.008-.024.064.002.108.01.019.026.055.036.08.018.047.058.067.058.03 0-.01.01-.016.021-.014.033.002.036-.048.006-.099a.16.16 0 01-.027-.065c-.001-.05-.055-.09-.07-.05zM5.956 14.045c-.006.028.023.102.041.102.038 0 .028-.092-.01-.112-.02-.01-.026-.009-.031.01zM5.893 14.067c-.015.015-.01.074.009.1.025.034.063.014.051-.03-.008-.039-.048-.083-.06-.07zM5.652 14.106a.092.092 0 00-.007.041c0 .043.056.1.078.078.011-.011.009-.026-.01-.064-.02-.049-.046-.07-.06-.055zM6.038 14.208c-.025.048.03.138.063.106.017-.018-.001-.097-.028-.114-.02-.012-.026-.011-.035.008zM5.764 14.21c-.02.034.04.126.07.107.017-.01.007-.076-.014-.103-.017-.019-.044-.021-.056-.004zM5.968 14.244c-.026.025.012.117.05.117.024 0 .022-.061-.003-.098-.02-.029-.033-.034-.047-.019zM5.89 14.364c.014.074.082.118.082.054 0-.044-.035-.094-.065-.094-.023 0-.025.006-.018.04zM15.15 5.724c0 .139.003.197.004.13a4.2 4.2 0 000-.252c-.001-.072-.004-.016-.004.122z"/></svg>